<svg version="1.1" id="Layer_2" xmlns="http://www.w3.org/2000/svg" x="0" y="0" viewBox="0 0 512 512" xml:space="preserve" class="icon lpanel" xmlns:xlink="http://www.w3.org/1999/xlink"><path d="M301.5 304.3l-.1-.4c-3.3-11.8 7.4-40.7 19.7-61.8l.1-.1.1-.1c2.2-2.4 8-8.9 13.5-17.1 10.6-16 15.5-30.7 14.6-43.8-.6-8.3-3.4-15.7-8.4-22l-.4-.5.1-.6c1.5-10 2.9-25.4.9-42.3-2.3-20.4-8.8-37.7-19.3-51.6-18.4-24.6-48-37-87.8-37-40 0-69.6 12.5-88.2 37-10.4 13.8-16.8 31.1-19.1 51.3-1.9 16.8-.6 32.2.9 42l.1.6-.4.5c-5.1 6.4-7.9 13.9-8.5 22.1-.9 13.2 4.1 27.9 14.7 43.6 6.4 9.4 12.3 15.7 13.4 16.9l.1.1.1.1c12.2 20.8 22.9 49.4 19.6 61.1-1 3.6-8.9 12.7-31.6 23.9-6.3 3.1-16.9 7.9-31.1 12.9l-.2.1h-.2c-30.7 2.7-55.2 15.2-72.8 37.2-37.2 46.5-28.8 118.3-28.7 119l1.8 14.2h273.9c8.8 0 16-7.2 16-16s-7.2-15.9-16-15.9H32.9v-1.4c.2-45 14.3-69.1 22.6-79.5 12.6-15.6 30-24.1 53.3-25.8l1.9-.1 1.7-.5c.2-.1 17.9-5.8 36.5-14.9 28.1-13.9 43.9-28.2 48.3-43.9 3.8-13.3 1.6-31-6.5-52.5-6.3-16.7-14.3-30.7-17.5-36l-1-1.6-1.3-1.3c-9-9.2-21.2-26.8-20.5-37.2.1-1.9.7-3.9 4-6.4l8.5-6.3-2.6-10.5c-1.1-4.9-9.8-48.4 10.8-75.9 12.4-16.4 33.9-24.8 63.8-24.8 29.7 0 51 8.3 63.3 24.6 22 29 11.1 76 10.9 76.5l-2.6 10.4 8.4 6.3c3.2 2.4 3.7 4.4 3.9 6.4.7 10.5-11.5 28.3-20.5 37.6l-1.3 1.4-1 1.7c-5.6 9.3-32.8 57.5-24.1 89.1.1.2.1.3.2.5 0 .2.1.3.1.4 1.8 5.4 6.9 9 12.6 9 1.4 0 2.9-.2 4.2-.7l3.9-1.3c6.8-2.4 10.6-9.6 8.6-16.7z"></path><path d="M511 383.5c-2.1-6.4-7.6-11.2-14.3-12.4l-46.8-9.1-23.1-42c-3.3-6-9.6-9.8-16.4-9.8-6.9 0-13.2 3.8-16.4 9.8l-23 42.1-46.8 9.1c-6.7 1.3-12.1 6-14.2 12.5-2.1 6.5-.6 13.6 4.1 18.6l32.7 35.2-5.9 47.7c-.9 6.8 2 13.5 7.5 17.5 3.2 2.4 7.1 3.6 11 3.6 2.7 0 5.5-.6 8-1.8l43.2-20.4 43.2 20.4c6.2 2.9 13.5 2.3 19-1.8 5.5-4 8.4-10.7 7.5-17.4l-5.9-47.8 32.6-35.2c4.6-5.1 6.2-12.3 4-18.8zm-59.5 38.2c-3.8 4.2-5.6 9.7-4.8 15.1l4.5 36.1-32.7-15.4-.4-.2c-4.9-2.1-10.2-2.1-15.1 0l-33.1 15.6 4.5-36.1c.7-5.4-1-10.9-4.8-14.9l-25-26.8 35.6-6.9c5.5-1.1 10.1-4.5 12.7-9.4l17.4-31.8 17.5 31.8c2.6 4.8 7.2 8.2 12.6 9.3l35.8 6.9-24.7 26.7z"></path></svg>