<?xml version="1.0" encoding="UTF-8"?>
<!DOCTYPE svg PUBLIC "-//W3C//DTD SVG 1.1//EN" "http://www.w3.org/Graphics/SVG/1.1/DTD/svg11.dtd">
<!-- Creator: CorelDRAW 2019 (64-Bit) -->
<svg xmlns="http://www.w3.org/2000/svg" xml:space="preserve" width="2551px" height="2231px" version="1.1" style="shape-rendering:geometricPrecision; text-rendering:geometricPrecision; image-rendering:optimizeQuality; fill-rule:evenodd; clip-rule:evenodd"
viewBox="0 0 2499.06 2185.42"
 xmlns:xlink="http://www.w3.org/1999/xlink">
 <defs>
  <style type="text/css">
   <![CDATA[
    .fil0 {fill:#FEFEFE}
   ]]>
  </style>
 </defs>
 <g id="Layer_x0020_1">
  <metadata id="CorelCorpID_0Corel-Layer"/>
  <g id="_1105653904">
   <path class="fil0" d="M2422.47 624.42l-514.15 0 -482.94 -541.47c-43.9,-52.19 -108.29,-82.44 -176.58,-82.93 -68.3,-0.97 -133.18,28.3 -178.05,79.52l-485.38 544.88 -508.78 0c-42.44,0 -76.59,35.61 -76.59,78.05 0,42.44 34.15,78.05 76.59,78.05l76.58 0 300.49 1348.8c9.27,33.17 39.52,56.1 73.66,56.1l1444.9 0c34.15,0 64.39,-22.93 73.66,-56.1l300.49 -1348.8 76.1 0c42.44,0 76.59,-38.05 76.59,-80.49 0,-42.43 -34.15,-75.61 -76.59,-75.61l0 0zm-1234.65 -441.95c15.12,-17.08 35.61,-26.35 58.54,-26.35l0.97 0c22.93,0 43.91,10.25 59.03,27.81l398.05 440.49 -911.23 0 394.64 -441.95 0 0zm736.6 1846.85l-1340.51 0 -258.54 -1248.8 1867.34 0 -268.29 1248.8z"/>
   <path class="fil0" d="M932.21 1479.56l633.18 0c40.48,0 73.66,-32.69 73.66,-73.66 0,-40.49 -32.69,-75.13 -73.66,-75.13l-633.18 0c-40.49,0 -73.66,34.64 -73.66,75.13 0,40.49 32.68,73.66 73.66,73.66l0 0z"/>
  </g>
 </g>
</svg>
