<svg version="1.1" id="Layer_1" xmlns="http://www.w3.org/2000/svg" x="0" y="0" viewBox="0 0 512 512" xml:space="preserve" class="icon lpanel" xmlns:xlink="http://www.w3.org/1999/xlink"><path d="M505.8 187.8c-2.9-2.5-6.7-3.7-10.6-3.7h-59.5v-51.7c0-8.8-7.2-16-16-16H224.3c-1.1 0-2.1-.6-2.7-1.6l-26.7-51.1c-2.8-5.3-8.2-8.6-14.2-8.6H15.4c-8.8 0-16 7.2-16 16V441c0 .4.1.8.1 1.1 0 .2.1.4.1.6.1.4.2.9.3 1.3 0 .1.1.2.1.4.3 1.1.8 2.2 1.4 3.2.1.1.2.2.2.4.2.4.5.7.7 1.1.1.1.1.1.1.2.1.1.1.2.2.3.2.3.5.6.8.9l.4.4c.3.3.6.6 1 .9l.3.3c.4.4.9.7 1.4 1 .1.1.2.1.3.2.4.3.8.5 1.2.7.1.1.3.1.4.2.4.2.8.4 1.2.5.3.1.5.2.8.3.3.1.7.2 1 .3.1 0 .3.1.4.1.4.1.9.2 1.3.2.2 0 .3.1.5.1.6.1 1.2.1 1.8.1h406.2c7 0 13.2-4.6 15.3-11.3l74-239.8c1.9-6 0-12.7-5.1-16.9zM34.4 87.1h134.9c1.1 0 2.1.6 2.7 1.6l26.7 51.1v.1c.1.1.2.3.2.4.2.3.3.6.5.8.1.1.2.2.2.3.5.8 1.1 1.5 1.8 2.2l.1.1c.3.3.6.6 1 .9l.1.1 1.2.9.1.1c.3.2.7.4 1 .6.1.1.2.1.3.2.4.2.7.4 1.1.5.1.1.2.1.4.1.3.1.7.3 1 .4.2.1.3.1.5.2.4.1.7.2 1.1.3.1 0 .2 0 .3.1.4.1.9.2 1.4.2h.3c.5 0 1 .1 1.5.1H400.6c1.7 0 3 1.3 3 3v32.7H89.4c-7 0-13.2 4.6-15.3 11.3L31.4 333.8V90.1c0-1.6 1.3-3 3-3zm373.2 336.8H41.1c-2 0-3.5-2-2.9-3.9l62.3-201.8c.4-1.3 1.6-2.1 2.9-2.1h366.5c2 0 3.5 2 2.9 3.9l-62.3 201.8c-.4 1.2-1.6 2.1-2.9 2.1z"></path></svg>