<?xml version="1.0" encoding="UTF-8"?>
<!DOCTYPE svg PUBLIC "-//W3C//DTD SVG 1.1//EN" "http://www.w3.org/Graphics/SVG/1.1/DTD/svg11.dtd">
<!-- Creator: CorelDRAW 2019 (64-Bit) -->
<svg xmlns="http://www.w3.org/2000/svg" xml:space="preserve" width="8.5in" height="11in" version="1.1" style="shape-rendering:geometricPrecision; text-rendering:geometricPrecision; image-rendering:optimizeQuality; fill-rule:evenodd; clip-rule:evenodd"
viewBox="0 0 8500 11000"
 xmlns:xlink="http://www.w3.org/1999/xlink">
 <defs>
  <style type="text/css">
   <![CDATA[
    .fil0 {fill:black}
   ]]>
  </style>
 </defs>
 <g id="Layer_x0020_1">
  <metadata id="CorelCorpID_0Corel-Layer"/>
  <g id="_1202892608">
   <path class="fil0" d="M3790.25 5235.37c21.82,81.73 413.06,744.45 430.5,819.34l361.06 0c11.85,-50.85 24.59,-61.8 49.65,-103.11 22.52,-37.14 32.43,-61.38 52.02,-100.73l220.41 -404.51c23.17,-38.04 98.88,-175.3 108.41,-210.99 68.3,5.69 126.47,39.04 189.05,60.92 116.04,40.58 264.44,70.98 349.37,150.57 58.92,55.21 75.56,73.6 110.64,153.22 24.26,55.07 56.12,116.67 67.68,182.29l74.83 688.97 -2805.2 0 45.69 -454.25c2.85,-19.32 13.74,-75.59 18.28,-106.71 6.09,-41.81 3.2,-75.28 8.8,-116.18 10.2,-74.51 38.72,-129.32 70.48,-193.38 55.47,-111.91 142.57,-189.58 267.9,-232.04 70.5,-23.89 117.61,-41.37 183.91,-66.06 43.85,-16.32 146.08,-63.14 196.52,-67.34zm1902.54 -208.31c46.33,22.23 133.97,49.22 182.54,67.43 250.59,93.94 433.34,90.21 531.27,482.5l49.99 463.83c4.22,68.72 13.85,176.31 27.77,236.08l-513.82 0c-30.24,-129.8 -36.68,-426.39 -85.75,-608.61 -18.79,-69.78 -69.19,-182.2 -110.31,-236.86 -53.56,-71.19 -112.9,-126.03 -192.77,-168.3 20.03,-86 89.03,-141.38 111.09,-236.08zm-2860.75 1235.96l-499.94 0 15.95 -234.02c42.02,-395.68 37.6,-726.97 394.56,-869.17 64.69,-25.77 115.83,-45.12 181.44,-68.53 62.72,-22.38 133.2,-58.72 199.61,-64.24 9.78,36.61 88.58,179.64 111.1,222.2 -270.94,143.36 -324.39,426.67 -361.86,693.56 -12.97,92.36 -20.8,234.07 -40.87,320.2zm-652.7 194.42l680.47 0c0,79.23 -13.89,96.05 -13.89,180.53l3152.39 0 0 -194.42 666.58 0c0,-162 -46.11,-732.07 -77.14,-908.85 -18.13,-103.31 -51.98,-170.51 -87.52,-245.77 -135.89,-287.74 -579.22,-334.02 -862.98,-470.18 -37.98,71.77 -195.44,312.89 -208.31,361.07 -80.38,-1.79 -173.45,-49.94 -244.6,-74.8 -43.83,-15.32 -73.66,-22.86 -114.44,-38.31 -39.89,-15.11 -71.98,-35.06 -127,-39.64l-407.13 759.39c-60.51,110.67 -13.6,101.61 -176.13,101.61 -39.36,0 -56.56,-52.7 -77.57,-89.07 -84.81,-146.78 -210.67,-423.06 -286.17,-547.06 -28.95,-47.54 -96.12,-172.11 -108.41,-224.88 -72.85,6.06 -162.31,50.91 -230.71,74.81 -283.54,99.06 -225,135.83 -347.98,-93.26 -37.45,-69.76 -67.26,-124.63 -101.78,-189.85 -42.52,22.5 -66.73,28.94 -119.87,46.78l-368.13 131.81c-173.28,62.27 -284.82,142.35 -368.53,298.06 -137.98,256.65 -171.13,840.55 -171.13,1162.04z"/>
   <path class="fil0" d="M4456.83 4860.41l-97.21 0c-274.36,0 -527.71,-273.93 -527.71,-555.48 0,-504.61 555.8,-724.11 889.02,-486.29 89.8,64.09 158.85,129.54 208.28,236.1 185.46,399.78 -150.18,805.67 -472.38,805.67zm277.74 -1222.07c66.38,-17.72 388.74,-265.37 738.02,53.55 342.18,312.44 163.4,987.98 -418.61,987.98 40.58,-174.19 83.32,-53.8 83.32,-444.39 0,-173.22 -130.8,-397.41 -257.68,-492.22l-145.05 -104.92zm-1069.31 652.7c0,138.08 49.03,283.89 97.21,374.95 -668.32,0 -794.97,-855.02 -262.39,-1081.74 142.11,-60.49 261.36,-74.11 410.57,-24.66 64.82,21.49 99.87,51.46 157.34,64.85l0 27.78c-144.03,33.56 -308.54,254.54 -362.93,414.75 -14.02,41.29 -39.8,168.05 -39.8,224.06zm166.65 -916.56c-170.55,0 -234.39,-8.47 -398.44,73.72 -229.24,114.83 -407.01,363.65 -407.01,634.53 0,267.22 77.79,461.61 269.41,605.49 161.94,121.59 355.6,188.75 605.48,130.53 35.05,52.35 128.53,112.07 192.41,140.88 281.13,126.82 694.11,69.87 835.24,-140.88 49.11,4.09 109.43,27.78 152.76,27.78 405.72,0 749.91,-318.85 749.91,-763.8 0,-551.29 -684.6,-947.22 -1184.52,-559.41 -93.52,72.56 -55.27,51.42 -120.48,47.44 -129.39,-7.89 -224.57,20.42 -270.56,-8.34 -71.51,-44.73 -207.18,-187.94 -424.2,-187.94z"/>
   <path class="fil0" d="M7442.57 4777.09c126.4,542.56 -49.95,1321.97 -296.26,1814.59 -87.8,175.6 -294.79,515.73 -436.04,661.05l-125.03 138.82c-91.12,90.8 -386.56,351.15 -461.95,371.28 16,-68.66 29.77,-127.95 45.13,-204.83 10.5,-52.56 36.84,-151.2 38.19,-211.78 -51.71,-12.05 -103.69,-27.77 -166.65,-27.77 -19.67,40.98 -152.76,642.92 -152.76,708.24 58.65,1.31 657.42,135.04 694.36,152.76 19.39,-40.43 30.02,-116.7 41.66,-166.65l-416.61 -97.21c113.08,-98.29 247.81,-170.48 406.21,-329.81 44.91,-45.17 79.82,-80.08 124.98,-124.98 22.94,-22.8 41.23,-38.46 61.86,-63.13l168.83 -206.12c238.37,-318.58 382.94,-593.37 513.97,-985.85 160.84,-481.79 154.52,-712.24 154.52,-1206.41 0,-88.94 -11.08,-164.45 -27.77,-236.08 -81.15,0 -97.03,13.89 -166.65,13.89z"/>
   <path class="fil0" d="M665.64 5624.21c28.02,41.85 70.41,96.53 124.98,111.09l142.41 -149.22c56.04,-55.38 88.82,-115.85 149.22,-156.29 0,582.92 315.02,1315.54 646.73,1755.75 321.68,426.89 663.02,713.59 1149.54,961.3 65.37,33.28 129.23,86.19 217.36,88.15 12.93,-55.48 36.76,-93.87 41.66,-152.76 -206.77,-48.17 -562.19,-290.8 -712.62,-412.23 -216.55,-174.8 -391.01,-355.5 -559.06,-579.69 -317.56,-423.64 -616.97,-1116.93 -616.97,-1660.52 68.54,36.26 101.62,80.41 156.11,135.52 51.29,51.88 109.89,83.21 149.41,142.22 41.85,-28.02 96.53,-70.42 111.1,-124.98 -55.63,-83.08 -125.35,-125.6 -183.9,-177.17 -24.15,-21.27 -39.21,-39.2 -62.4,-62.58l-267.53 -232.41c-30.22,20.24 -442.39,448.63 -486.05,513.83z"/>
   <path class="fil0" d="M5595.58 1819.13c5.22,62.76 112.16,360.94 138.87,416.61 -168.66,-39.3 -343.93,-174.8 -854.89,-256.07 -690.44,-109.83 -1467.37,4.73 -2070.73,330.07l-426.95 267.41c-44.71,31.53 -44.02,48.66 -91.44,61.32 35.87,67.79 61.34,71.07 97.21,138.87 138.57,-92.79 225.14,-169.03 389.44,-263.26 34.02,-19.51 64.04,-31.97 99.29,-53.47 41.15,-25.09 67.35,-38.95 110.35,-56.29 80.21,-32.34 150.54,-71.47 232.23,-101.06 753.81,-273.04 1626.01,-285.2 2372.13,48.07l73.93 37.17 -416.61 138.87c11.02,47.29 36.23,112.5 55.55,152.76 82.29,-6.85 598.53,-201.49 680.47,-208.31 -5.21,-62.61 -205.51,-659.59 -222.19,-694.36 -55.88,13.02 -103.3,36.39 -166.65,41.66z"/>
   <path class="fil0" d="M7262.04 4068.85c4.64,55.74 34.37,126.63 55.55,166.65 44.41,-23.5 97.69,-42.72 152.76,-55.55 -1.99,-89.56 -35.55,-93.21 -41.66,-166.65 -69.43,16.17 -105.35,50.45 -166.65,55.55z"/>
   <path class="fil0" d="M1540.53 3499.47c38.44,25.74 92.18,70.86 138.87,83.32 25.74,-38.44 70.86,-92.18 83.32,-138.87 -38.44,-25.74 -92.18,-70.85 -138.87,-83.32 -30.66,45.79 -68.72,76.17 -83.32,138.87z"/>
   <path class="fil0" d="M3276.43 8332.2c70.35,5.85 96.29,35.81 166.65,41.66 13.02,-55.88 36.39,-103.3 41.66,-166.65 -58.89,-4.9 -97.28,-28.74 -152.76,-41.66 -2.88,34.61 -42.07,138.56 -55.55,166.65z"/>
   <path class="fil0" d="M2012.69 2874.55c5.32,63.95 55.88,97.31 97.21,124.98 61.61,-14.35 94.85,-52.21 124.98,-97.21 -27.06,-40.41 -68.28,-81.77 -97.21,-124.98 -45.45,30.44 -66.19,81.51 -124.98,97.21z"/>
   <path class="fil0" d="M3651.38 8415.52c43.88,21.06 104.66,18.58 152.76,41.66 19.39,-40.42 30.02,-116.7 41.66,-166.65 -51.71,-12.05 -103.69,-27.77 -166.65,-27.77 -4.99,59.91 -26.34,88.3 -27.78,152.76z"/>
   <path class="fil0" d="M4012.44 8498.85c216.17,0 180.53,58.01 180.53,-152.76 -77.09,0 -82.35,-13.89 -152.76,-13.89 -9.75,41.86 -24.03,121.67 -27.77,166.65z"/>
   <path class="fil0" d="M7373.13 4416.03c1.55,69.38 26.23,97.26 27.78,166.65 63.44,-1.41 107.37,-22.84 166.65,-27.78 -11.64,-49.95 -22.27,-126.22 -41.66,-166.65 -52.45,12.22 -86.87,27.78 -152.76,27.78z"/>
   <path class="fil0" d="M7109.28 3735.56c22.14,41.84 58.18,104.44 69.43,152.76 48.81,-25.83 102.75,-42.98 152.76,-69.44 -25.21,-52.53 -42.07,-101.03 -69.44,-152.76 -51.73,27.37 -100.22,44.23 -152.76,69.44z"/>
   <path class="fil0" d="M1776.61 3193.96c24.99,16.73 34.51,26.72 62.83,48.26 42.67,32.45 19.91,30.39 76.04,35.06 13.11,-49.11 7.19,-25.23 37.84,-59.37 33.66,-37.49 21.85,-20.94 45.48,-65.61l-124.98 -97.21c-33.61,50.19 -79.1,71.06 -97.21,138.87z"/>
  </g>
 </g>
</svg>
