<svg xmlns="http://www.w3.org/2000/svg" viewBox="0 0 512 512" class="icon icon-lg align-text-bottom" xmlns:xlink="http://www.w3.org/1999/xlink"><path d="M506.3 265.6c-10.8-10.8-22.9-19.1-36.2-24.9 1.6-1.8 3.2-3.7 4.7-5.7 12.9-16.8 20-39 20-62.3 0-23.4-7.1-45.5-20-62.3-13.9-18.1-32.7-28.1-53-28.1s-39.2 10-53 28.1c-12.9 16.8-20 39-20 62.3 0 23.4 7.1 45.5 20 62.3 2.1 2.7 4.2 5.2 6.5 7.5-13.2 6.5-25.8 15.9-37.9 28-6.2 6.2-6.2 16.4 0 22.6 3.1 3.1 7.2 4.7 11.3 4.7s8.2-1.6 11.3-4.7c19.9-19.9 41.1-30 63.1-30 23.6 0 44 8.4 60.6 25.1 6.2 6.2 16.4 6.2 22.6 0 6.2-6.2 6.2-16.3 0-22.6zm-84.5-151.2c22.2 0 41 26.7 41 58.4s-18.8 58.4-41 58.4-41-26.7-41-58.4 18.8-58.4 41-58.4z"></path><path d="M451.3 336.6l-44.6-37.2c-5.8-4.9-14.3-5-20.2-.2l-49.3 39.4c-6.9 5.5-8.4 15.7-2.9 22.7 3.2 4 7.9 6.1 12.6 6.1 3.5 0 7-1.1 10-3.5l22.6-18.1c-1.5 15-5.1 35.3-13.6 55.1-2.5 5.8-7.3 10.4-13.2 12.6-7.7 2.8-20.9 6.2-43.6 8.8-29.5 3.4-67.7 4.7-110.6 3.9-39.3-.8-78.9-3.5-111.5-7.4-31.9-3.9-46.8-7.8-53.4-10 3-18.2 16.8-46.5 43.1-73.4 18.2-18.6 55.9-49.8 103.9-49.8 29.3 0 62.9 10.7 92.5 29.3l21.4 16.6c6.8 5.3 16.7 4.6 22.3-1.9 6-7 4.9-17.5-2.3-23.1l-22.3-17.4-1.2-.9c-15.3-9.7-31.6-17.6-48.1-23.4 26-20.8 43.1-55.4 43.1-94.5 0-63.5-45-115.2-100.3-115.2S85.4 106.8 85.4 170.3c0 38.4 16.4 72.4 41.6 93.4-33.1 12.6-58.4 34.3-73 49.2-32.2 32.8-53 73.2-53 102.9 0 18.5 23.3 24 35.9 26.9 38.9 9.2 116.6 15.6 186.9 15.6h6.7c39.4-.2 73.6-2.5 99-6.6 35.3-5.7 54.2-14.5 61.4-28.8 14.1-28.1 19.1-57.7 20.8-77.8l19.2 16c6.8 5.7 16.9 4.7 22.5-2 5.6-6.8 4.7-16.9-2.1-22.5zm-334-166.3c0-45.9 30.6-83.2 68.3-83.2s68.3 37.3 68.3 83.2-30.6 83.2-68.3 83.2-68.3-37.3-68.3-83.2z"></path></svg>