<svg version="1.1" id="Layer_1" xmlns="http://www.w3.org/2000/svg" x="0" y="0" viewBox="0 0 512 512" xml:space="preserve" class="icon lpanel" xmlns:xlink="http://www.w3.org/1999/xlink"><path d="M449.8 63.6c-33.9 0-61.4 27.5-61.4 61.4 0 16.3 6.4 31.2 16.8 42.2l-61.7 116.1c-5.6-1.7-11.5-2.6-17.6-2.6-9.2 0-18 2.1-25.9 5.7l-43-52.9c6-9.5 9.5-20.7 9.5-32.7 0-33.9-27.5-61.4-61.4-61.4s-61.4 27.5-61.4 61.4c0 14.5 5 27.7 13.4 38.2l-73.2 90.4c-6.6-2.4-13.7-3.7-21.1-3.7-33.9 0-61.4 27.5-61.4 61.4s27.5 61.4 61.4 61.4 61.4-27.5 61.4-61.4c0-14.7-5.2-28.2-13.8-38.8l73-90.1c6.8 2.6 14.1 4 21.7 4 10.1 0 19.5-2.4 27.9-6.7l42.2 51.9c-6.8 9.9-10.7 21.8-10.7 34.7 0 33.9 27.5 61.4 61.4 61.4s61.4-27.5 61.4-61.4c0-16-6.1-30.5-16.1-41.4L433 184.2c5.3 1.5 10.9 2.3 16.7 2.3 33.9 0 61.4-27.5 61.4-61.4.1-33.9-27.5-61.5-61.3-61.5zM62.7 417.9c-17 0-30.7-13.7-30.7-30.7s13.7-30.7 30.7-30.7 30.7 13.7 30.7 30.7-13.7 30.7-30.7 30.7zm111.6-217.1c0-17 13.7-30.7 30.7-30.7s30.7 13.7 30.7 30.7-13.7 30.7-30.7 30.7c-17 .1-30.7-13.7-30.7-30.7zm151.5 172.1c-17 0-30.7-13.7-30.7-30.7s13.7-30.7 30.7-30.7 30.7 13.7 30.7 30.7c.1 17-13.7 30.7-30.7 30.7zm124-217.1c-17 0-30.7-13.7-30.7-30.7s13.7-30.7 30.7-30.7 30.7 13.7 30.7 30.7-13.8 30.7-30.7 30.7z"></path></svg>