<svg version="1.1" id="Layer_1" xmlns="http://www.w3.org/2000/svg" x="0" y="0" viewBox="0 0 512 512" xml:space="preserve" class="icon icon-sm lpanel align-middle rotate-90" xmlns:xlink="http://www.w3.org/1999/xlink"><path d="M487 239.7H213.3c-7.4-33.7-37.4-59.1-73.4-59.1S74 206 66.6 239.7H21c-8.8 0-16 7.2-16 16s7.2 16 16 16h45.6c7.4 33.7 37.4 59.1 73.4 59.1s66-25.3 73.4-59.1H487c8.8 0 16-7.2 16-16s-7.2-16-16-16zm-347 59.1c-23.8 0-43.1-19.3-43.1-43.1s19.3-43.1 43.1-43.1 43.1 19.3 43.1 43.1-19.4 43.1-43.1 43.1zM487 418.1h-62c-7.4-33.7-37.4-59.1-73.4-59.1s-66 25.3-73.4 59.1H21c-8.8 0-16 7.2-16 16s7.2 16 16 16h257.2c7.4 33.7 37.4 59.1 73.4 59.1s66-25.3 73.4-59.1h62c8.8 0 16-7.2 16-16s-7.2-16-16-16zm-92.3 16c0 23.8-19.3 43.1-43.1 43.1s-43.1-19.3-43.1-43.1 19.3-43.1 43.1-43.1 43.1 19.3 43.1 43.1zM21 93.4h257.2c7.4 33.7 37.4 59.1 73.4 59.1s66-25.3 73.4-59.1h62c8.8 0 16-7.2 16-16s-7.2-16-16-16h-62c-7.4-33.7-37.4-59.1-73.4-59.1s-66 25.3-73.4 59.1H21c-8.8 0-16 7.2-16 16s7.2 16 16 16zm330.6-59.1c23.8 0 43.1 19.3 43.1 43.1s-19.3 43.1-43.1 43.1-43.1-19.3-43.1-43.1 19.3-43.1 43.1-43.1z"></path></svg>