<?xml version="1.0" encoding="UTF-8"?>
<!DOCTYPE svg PUBLIC "-//W3C//DTD SVG 1.1//EN" "http://www.w3.org/Graphics/SVG/1.1/DTD/svg11.dtd">
<!-- Creator: CorelDRAW 2019 (64-Bit) -->
<svg xmlns="http://www.w3.org/2000/svg" xml:space="preserve" width="2550px" height="3300px" version="1.1" style="shape-rendering:geometricPrecision; text-rendering:geometricPrecision; image-rendering:optimizeQuality; fill-rule:evenodd; clip-rule:evenodd"
viewBox="0 0 2550 3300"
 xmlns:xlink="http://www.w3.org/1999/xlink">
 <defs>
  <style type="text/css">
   <![CDATA[
    .fil0 {fill:#FEFEFE}
    .fil1 {fill:#2A3042}
   ]]>
  </style>
 </defs>
 <g id="Layer_x0020_1">
  <metadata id="CorelCorpID_0Corel-Layer"/>
  <g id="_1184309232">
   <path class="fil0" d="M1264.01 450c-618.67,0 -1122,503.33 -1122,1122 0,618.66 503.33,1122 1122,1122 56.32,0 101.99,-45.67 101.99,-102 0,-56.33 -45.67,-102 -101.99,-102 -506.19,0 -918,-411.82 -918,-918 0,-506.19 411.81,-918 918,-918 56.32,0 101.99,-45.67 101.99,-102 0,-56.33 -45.67,-102 -101.99,-102z"/>
   <path class="fil0" d="M1911.63 2975.46c19.23,16.48 42.84,24.54 66.32,24.54 28.76,0 57.34,-12.1 77.51,-35.63l173.41 -202.4 225.13 -0.02c56.33,0 102,-45.67 102,-102 0,-56.33 -45.68,-102 -102.01,-102l-656.24 0.04 -72.28 -120.47c-28.99,-48.3 -91.65,-63.98 -139.95,-34.99 -48.31,28.98 -63.97,91.64 -34.99,139.95l102 169.99c18.43,30.73 51.64,49.52 87.47,49.52l220.21 -0.02 -59.67 69.65c-36.65,42.79 -31.68,107.18 11.09,143.84z"/>
   <g>
    <path class="fil0" d="M1264.01 858c-393.71,0 -714,320.3 -714,714 0,393.7 320.29,714 714,714 393.7,0 713.99,-320.3 713.99,-714 0,-393.71 -320.29,-714 -713.99,-714z"/>
    <path class="fil0" d="M764.27 1674l196.37 0c6.44,123.66 24.78,243.43 55.95,343.75 -127.92,-71.29 -222.21,-195.96 -252.32,-343.75z"/>
    <path class="fil0" d="M960.64 1470l-196.37 0c30.12,-147.79 124.4,-272.46 252.32,-343.75 -31.17,100.31 -49.52,220.08 -55.95,343.75z"/>
   </g>
   <g>
    <path class="fil1" d="M1264.01 2072.74c-32.93,-41.81 -86.09,-177.41 -99.07,-398.74l198.14 0c-12.99,221.33 -66.15,356.93 -99.07,398.74z"/>
    <path class="fil1" d="M1164.94 1470c12.98,-221.33 66.15,-356.93 99.07,-398.75 32.92,41.81 86.08,177.42 99.06,398.75l-198.13 0z"/>
    <path class="fil1" d="M1511.42 2017.75c31.18,-100.32 49.51,-220.1 55.95,-343.75l196.37 0c-30.12,147.79 -124.4,272.46 -252.32,343.75z"/>
    <path class="fil1" d="M1567.36 1470c-6.43,-123.67 -24.77,-243.44 -55.94,-343.75 127.93,71.29 222.2,195.96 252.31,343.75l-196.37 0z"/>
   </g>
   <g>
    <path class="fil1" d="M1264.01 2072.74l0 -398.74 -99.07 0c12.98,221.33 66.14,356.93 99.07,398.74z"/>
    <path class="fil1" d="M764.27 1470l196.37 0c6.44,-123.67 24.78,-243.44 55.95,-343.75 -127.92,71.29 -222.21,195.96 -252.32,343.75z"/>
    <path class="fil1" d="M1264.01 1470l0 -398.75c-32.93,41.81 -86.09,177.42 -99.07,398.75l99.07 0z"/>
    <path class="fil1" d="M764.27 1674c30.12,147.79 124.4,272.46 252.32,343.75 -31.17,-100.32 -49.51,-220.1 -55.95,-343.75l-196.37 0z"/>
   </g>
   <path class="fil0" d="M1164.94 1674l99.07 0 0 -204 -99.07 0c12.98,-221.33 66.15,-356.93 99.07,-398.75l0 -213.25c-393.71,0 -714,320.3 -714,714 0,393.7 320.29,714 714,714l0 -213.26c-32.93,-41.81 -86.09,-177.41 -99.07,-398.74zm-400.67 0l196.37 0c6.44,123.66 24.78,243.43 55.95,343.75 -127.92,-71.29 -222.21,-195.96 -252.32,-343.75zm196.37 -204l-196.37 0c30.12,-147.79 124.4,-272.46 252.32,-343.75 -31.17,100.31 -49.52,220.08 -55.95,343.75z"/>
   <path class="fil0" d="M1264.01 654c56.32,0 101.99,-45.67 101.99,-102 0,-56.33 -45.67,-102 -101.99,-102 -618.23,0 -1121.26,502.59 -1121.98,1120.65l204 0c0.72,-505.57 412.24,-916.65 917.98,-916.65z"/>
   <g>
   </g>
   <g>
   </g>
   <g>
   </g>
   <g>
   </g>
   <g>
   </g>
   <g>
   </g>
   <g>
   </g>
   <g>
   </g>
   <g>
   </g>
   <g>
   </g>
   <g>
   </g>
   <g>
   </g>
   <g>
   </g>
   <g>
   </g>
   <g>
   </g>
  </g>
 </g>
</svg>
