<svg version="1.1" id="Layer_1" xmlns="http://www.w3.org/2000/svg" x="0" y="0" viewBox="0 0 512 512" xml:space="preserve" class="icon lpanel" xmlns:xlink="http://www.w3.org/1999/xlink"><path d="M45.5 404c0 8.8 7.2 16 16 16h390.1c8.8 0 16-7.2 16-16s-7.2-16-16-16H61.5c-8.8 0-16 7.2-16 16zM484.6 463H28.5c-8.8 0-16 7.2-16 16s7.2 16 16 16h456.1c8.8 0 16-7.2 16-16s-7.1-16-16-16zM501.1 128.2L266.7 3.5c-4.7-2.4-10.2-2.5-14.9 0L12.2 128.1c-7.8 4.1-10.9 13.7-6.8 21.6 2.9 5.5 8.4 8.6 14.2 8.6 2.5 0 5-.6 7.4-1.8L259.1 35.8l227 120.7c7.8 4.1 17.5 1.2 21.6-6.6 4.2-7.9 1.2-17.6-6.6-21.7zM256.6 344.8c8.8 0 16-7.2 16-16V206h12c8.8 0 16-7.2 16-16s-7.2-16-16-16h-56c-8.8 0-16 7.2-16 16s7.2 16 16 16h12v122.8c0 8.8 7.1 16 16 16zM115.6 344.8c8.8 0 16-7.2 16-16V206h12c8.8 0 16-7.2 16-16s-7.2-16-16-16h-56c-8.8 0-16 7.2-16 16s7.2 16 16 16h12v122.8c0 8.8 7.1 16 16 16zM397.6 344.8c8.8 0 16-7.2 16-16V206h12c8.8 0 16-7.2 16-16s-7.2-16-16-16h-56c-8.8 0-16 7.2-16 16s7.2 16 16 16h12v122.8c0 8.8 7.1 16 16 16z"></path></svg>