<svg version="1.1" id="Layer_1" xmlns="http://www.w3.org/2000/svg" x="0" y="0" viewBox="0 0 512 512" xml:space="preserve" class="icon lpanel" xmlns:xlink="http://www.w3.org/1999/xlink"><path d="M480 480V264c0-4.4-3.6-8-8-8h-16c-4.4 0-8-3.6-8-8v-16c0-4.4-3.6-8-8-8H328c-4.4 0-8 3.6-8 8v16c0 4.4-3.6 8-8 8h-16c-4.4 0-8 3.6-8 8v216h-32V72c0-4.4-3.6-8-8-8h-16c-4.4 0-8-3.6-8-8V40c0-4.4-3.6-8-8-8h-24V0H96v32H72c-4.4 0-8 3.6-8 8v16c0 4.4-3.6 8-8 8H40c-4.4 0-8 3.6-8 8v408H0v32h512v-32h-32zM64 96h64v64H64V96zm0 96h64v64H64v-64zm0 96h64v64H64v-64zm128 192H96v-96h96v96zm32-128h-64v-64h64v64zm0-96h-64v-64h64v64zm0-96h-64V96h64v64zm96 128h64v32h-64v-32zm0 64h64v32h-64v-32zm96 128h-64v-64h64v64zm32-96h-32v-32h32v32zm0-64h-32v-32h32v32z"></path></svg>