<svg version="1.1" id="Layer_1" xmlns="http://www.w3.org/2000/svg" x="0" y="0" viewBox="0 0 512 512" xml:space="preserve" class="icon lpanel" xmlns:xlink="http://www.w3.org/1999/xlink"><path fill="none" d="M33 206.7v179.8c0 .3.3.6.6.6h444.8c.3 0 .6-.3.6-.6V206.7H33zm146.8 78.8h-108c-8.8 0-16-7.2-16-16s7.2-16 16-16h108c8.8 0 16 7.2 16 16s-7.2 16-16 16zM479 174.7v-49.2c0-.3-.3-.6-.6-.6H33.6c-.3 0-.6.3-.6.6v49.2h446z"></path><path d="M478.4 92.9H33.6c-18 0-32.6 14.6-32.6 32.6v261c0 18 14.6 32.6 32.6 32.6h444.8c18 0 32.6-14.6 32.6-32.6v-261c0-18-14.6-32.6-32.6-32.6zM35 124.9h442c1.1 0 2 .9 2 2v45.8c0 1.1-.9 2-2 2H35c-1.1 0-2-.9-2-2v-45.8c0-1.1.9-2 2-2zm442 262.2H35c-1.1 0-2-.9-2-2V208.7c0-1.1.9-2 2-2h442c1.1 0 2 .9 2 2v176.4c0 1.1-.9 2-2 2z"></path><path d="M179.8 253.5h-108c-8.8 0-16 7.2-16 16s7.2 16 16 16h108c8.8 0 16-7.2 16-16s-7.2-16-16-16z"></path></svg>