<svg version="1.1" id="Layer_1" xmlns="http://www.w3.org/2000/svg" x="0" y="0" viewBox="0 0 512 512" xml:space="preserve" class="icon lpanel" xmlns:xlink="http://www.w3.org/1999/xlink"><path d="M320 192h32v32h-32zM160 192h32v32h-32z"></path><path d="M416 128h-62.4V96.6c0-30.6-8.6-54.8-25.6-71.9-17.1-17.1-41.1-25.8-71.6-25.8s-54.6 8.7-71.6 25.8-25.6 41.3-25.6 71.9V128H96c-17.7 0-32 14.3-32 32v320c0 17.7 14.3 32 32 32h320c17.7 0 32-14.3 32-32V160c0-17.7-14.3-32-32-32zM191.2 96.6c0-21.8 5.5-38.4 16.3-49.3s27.3-16.4 48.9-16.4c21.7 0 38.1 5.5 48.9 16.4s16.3 27.5 16.3 49.3V128H191.2V96.6zM416 480H96V160h320v320z"></path></svg>