<svg version="1.1" id="Layer_1" xmlns="http://www.w3.org/2000/svg" x="0" y="0" viewBox="0 0 512 512" xml:space="preserve" class="icon lpanel" xmlns:xlink="http://www.w3.org/1999/xlink"><path d="M304 160h134.3c3.6 0 5.3-4.3 2.8-6.8L294.8 6.8c-2.5-2.5-6.8-.7-6.8 2.9V144c0 8.8 7.2 16 16 16zM495.7 415.3h-62c-8.8 0-16 7.2-16 16s7.2 16 16 16h23.2c-18.2 20.9-44.8 33.2-72.9 33.2-53.2 0-96.5-43.3-96.5-96.5s43.3-96.5 96.5-96.5c45.6 0 85.4 32.4 94.5 77 1.8 8.7 10.2 14.2 18.9 12.5 8.7-1.8 14.2-10.2 12.5-18.9-5.9-28.6-21.5-54.6-44.1-73.2-22.9-18.9-52-29.4-81.8-29.4-70.9 0-128.5 57.6-128.5 128.5S313.1 512.5 384 512.5c36.7 0 71.5-15.7 95.7-42.7v23.5c0 8.8 7.2 16 16 16s16-7.2 16-16v-62c0-8.8-7.2-16-16-16z"></path><path d="M209.5 419.3c-.4-1.9-2-3.3-3.9-3.3h-61.8c-8.7 0-15.8-7.1-15.8-15.8v-.3c0-8.7 7.2-15.9 15.9-15.9H202c2.2 0 3.9-1.7 4-3.9.2-8 .9-15.8 2.1-23.5.4-2.4-1.5-4.6-3.9-4.6h-60.4c-8.7 0-15.8-7.1-15.8-15.8v-.3c0-8.7 7.2-15.9 15.9-15.9h71.2c1.6 0 3.1-1 3.7-2.5C245.2 252.1 309.2 206 384 206c20.6 0 40.3 3.5 58.7 9.9 2.6.9 5.3-1 5.3-3.8V196c0-2.2-1.8-4-4-4H288c-17.7 0-32-14.3-32-32V4c0-2.2-1.8-4-4-4H80c-8.8 0-16 7.2-16 16v480c0 8.8 7.2 16 16 16h170.8c3.5 0 5.3-4.2 2.9-6.7-22-23.6-37.6-53.2-44.2-86z"></path></svg>