<svg version="1.1" id="Layer_1" xmlns="http://www.w3.org/2000/svg" x="0" y="0" viewBox="0 0 512 512" xml:space="preserve" class="icon lpanel" xmlns:xlink="http://www.w3.org/1999/xlink"><path d="M480 195.3H143.9c-8.7 0-15.8 7.1-15.8 15.8l-.1.5c0 8.7 7.1 15.8 15.8 15.8H455c11.3 0 19 11.4 14.8 21.9l-51.2 128c-2.4 6.1-8.3 10.1-14.9 10.1H112c-8.8 0-16-7.2-16-16v-176c0-17.7-14.3-32-32-32H15.8c-8.7 0-15.8 7.1-15.8 15.8v.3c0 8.7 7.1 15.8 15.8 15.8H48c8.8 0 16 7.2 16 16v176c0 17.7 14.3 32 32 32h322.5c13.2 0 25.1-8.2 29.9-20.5l61.4-160c8-21-7.4-43.5-29.8-43.5z"></path><circle cx="141.9" cy="472.3" r="38.7"></circle><circle cx="356.5" cy="472.3" r="38.7"></circle><path d="M143.8 355.3h224.4c8.7 0 15.8-7.1 15.8-15.8v-.3c0-8.7-7.1-15.8-15.8-15.8H143.8c-8.7 0-15.8 7.1-15.8 15.8v.3c0 8.7 7.1 15.8 15.8 15.8zM144 291.3h256.2c8.7 0 15.8-7.1 15.8-15.8v-.3c0-8.7-7.1-15.8-15.8-15.8H144c-8.7 0-15.8 7.1-15.8 15.8v.3c0 8.7 7.1 15.8 15.8 15.8z"></path></svg>